<?xml version="1.0" encoding="UTF-8" standalone="no"?>
<!DOCTYPE svg PUBLIC "-//W3C//DTD SVG 1.1//EN"
 "http://www.w3.org/Graphics/SVG/1.1/DTD/svg11.dtd">
<!-- Generated by graphviz version 2.43.0 (0)
 -->
<!-- Title: G Pages: 1 -->
<svg width="263pt" height="116pt"
 viewBox="0.00 0.00 262.84 116.00" xmlns="http://www.w3.org/2000/svg" xmlns:xlink="http://www.w3.org/1999/xlink">
<g id="graph0" class="graph" transform="scale(1 1) rotate(0) translate(4 112)">
<title>G</title>
<polygon fill="white" stroke="transparent" points="-4,4 -4,-112 258.84,-112 258.84,4 -4,4"/>
<!-- Speak -->
<g id="node1" class="node">
<title>Speak</title>
<ellipse fill="none" stroke="black" cx="129.4" cy="-90" rx="38.99" ry="18"/>
<text text-anchor="middle" x="129.4" y="-86.3" font-family="Times,serif" font-size="14.00">Speak</text>
</g>
<!-- Dog -->
<g id="node2" class="node">
<title>Dog</title>
<ellipse fill="none" stroke="black" cx="114.4" cy="-18" rx="29.5" ry="18"/>
<text text-anchor="middle" x="114.4" y="-14.3" font-family="Times,serif" font-size="14.00">Dog</text>
</g>
<!-- Speak&#45;&gt;Dog -->
<g id="edge1" class="edge">
<title>Speak&#45;&gt;Dog</title>
<path fill="none" stroke="black" d="M125.77,-72.05C124.1,-64.26 122.07,-54.82 120.2,-46.08"/>
<polygon fill="black" stroke="black" points="123.62,-45.32 118.1,-36.28 116.77,-46.79 123.62,-45.32"/>
</g>
<!-- Fish -->
<g id="node3" class="node">
<title>Fish</title>
<ellipse fill="none" stroke="black" cx="36.4" cy="-18" rx="30.59" ry="18"/>
<text text-anchor="middle" x="36.4" y="-14.3" font-family="Times,serif" font-size="14.00">Fish</text>
</g>
<!-- Speak&#45;&gt;Fish -->
<g id="edge2" class="edge">
<title>Speak&#45;&gt;Fish</title>
<path fill="none" stroke="black" d="M109.67,-74.15C96.04,-63.89 77.73,-50.11 62.83,-38.9"/>
<polygon fill="black" stroke="black" points="64.61,-35.85 54.51,-32.64 60.4,-41.45 64.61,-35.85"/>
</g>
<!-- Shark -->
<g id="node4" class="node">
<title>Shark</title>
<ellipse fill="none" stroke="black" cx="200.4" cy="-18" rx="38.19" ry="18"/>
<text text-anchor="middle" x="200.4" y="-14.3" font-family="Times,serif" font-size="14.00">Shark</text>
</g>
<!-- Speak&#45;&gt;Shark -->
<g id="edge3" class="edge">
<title>Speak&#45;&gt;Shark</title>
<path fill="none" stroke="black" d="M145.15,-73.46C154.62,-64.13 166.84,-52.09 177.37,-41.7"/>
<polygon fill="black" stroke="black" points="180.02,-44 184.68,-34.49 175.11,-39.02 180.02,-44"/>
</g>
<!-- Move -->
<g id="node5" class="node">
<title>Move</title>
<ellipse fill="none" stroke="black" cx="36.4" cy="-90" rx="36.29" ry="18"/>
<text text-anchor="middle" x="36.4" y="-86.3" font-family="Times,serif" font-size="14.00">Move</text>
</g>
<!-- Move&#45;&gt;Dog -->
<g id="edge4" class="edge">
<title>Move&#45;&gt;Dog</title>
<path fill="none" stroke="black" d="M53.32,-73.81C64.35,-63.92 78.88,-50.87 91.01,-39.99"/>
<polygon fill="black" stroke="black" points="93.46,-42.49 98.57,-33.21 88.79,-37.28 93.46,-42.49"/>
</g>
<!-- Move&#45;&gt;Fish -->
<g id="edge5" class="edge">
<title>Move&#45;&gt;Fish</title>
<path fill="none" stroke="black" d="M36.4,-71.7C36.4,-63.98 36.4,-54.71 36.4,-46.11"/>
<polygon fill="black" stroke="black" points="39.9,-46.1 36.4,-36.1 32.9,-46.1 39.9,-46.1"/>
</g>
<!-- Move&#45;&gt;Shark -->
<g id="edge6" class="edge">
<title>Move&#45;&gt;Shark</title>
<path fill="none" stroke="black" d="M63.11,-77.6C90.38,-65.96 132.93,-47.8 163.43,-34.78"/>
<polygon fill="black" stroke="black" points="165.05,-37.89 172.87,-30.75 162.3,-31.45 165.05,-37.89"/>
</g>
<!-- Hunt -->
<g id="node6" class="node">
<title>Hunt</title>
<ellipse fill="none" stroke="black" cx="220.4" cy="-90" rx="34.39" ry="18"/>
<text text-anchor="middle" x="220.4" y="-86.3" font-family="Times,serif" font-size="14.00">Hunt</text>
</g>
<!-- Hunt&#45;&gt;Shark -->
<g id="edge7" class="edge">
<title>Hunt&#45;&gt;Shark</title>
<path fill="none" stroke="black" d="M215.56,-72.05C213.33,-64.26 210.63,-54.82 208.13,-46.08"/>
<polygon fill="black" stroke="black" points="211.45,-44.93 205.33,-36.28 204.71,-46.85 211.45,-44.93"/>
</g>
</g>
</svg>
